<svg width="106" height="112" viewBox="0 0 106 112" fill="none" xmlns="http://www.w3.org/2000/svg">
<path d="M62.3137 1H4.9799C2.78186 1 1 2.81067 1 5.04424V106.956C1 109.189 2.78186 111 4.9799 111H62.3137C64.5118 111 66.2936 109.189 66.2936 106.956V5.04424C66.2936 2.81067 64.5118 1 62.3137 1Z" fill="#FFD3B2" stroke="#61687F" stroke-width="2" stroke-miterlimit="10"/>
<path d="M16.4669 20H12.3176C10.9643 20 9.86719 21.1135 9.86719 22.4871V26.6986C9.86719 28.0722 10.9643 29.1857 12.3176 29.1857H16.4669C17.8202 29.1857 18.9173 28.0722 18.9173 26.6986V22.4871C18.9173 21.1135 17.8202 20 16.4669 20Z" fill="#61687F" stroke="#61687F" stroke-width="3" stroke-miterlimit="10"/>
<path d="M16.4669 40H12.3176C10.9643 40 9.86719 41.1135 9.86719 42.4871V46.6986C9.86719 48.0722 10.9643 49.1857 12.3176 49.1857H16.4669C17.8202 49.1857 18.9173 48.0722 18.9173 46.6986V42.4871C18.9173 41.1135 17.8202 40 16.4669 40Z" fill="#61687F" stroke="#61687F" stroke-width="3" stroke-miterlimit="10"/>
<path d="M37.157 40H33.0077C31.6544 40 30.5573 41.1135 30.5573 42.4871V46.6986C30.5573 48.0722 31.6544 49.1857 33.0077 49.1857H37.157C38.5103 49.1857 39.6074 48.0722 39.6074 46.6986V42.4871C39.6074 41.1135 38.5103 40 37.157 40Z" fill="#61687F" stroke="#61687F" stroke-width="3" stroke-miterlimit="10"/>
<path d="M37.157 58H33.0077C31.6544 58 30.5573 59.1135 30.5573 60.4871V64.6986C30.5573 66.0722 31.6544 67.1857 33.0077 67.1857H37.157C38.5103 67.1857 39.6074 66.0722 39.6074 64.6986V60.4871C39.6074 59.1135 38.5103 58 37.157 58Z" fill="#61687F" stroke="#61687F" stroke-width="3" stroke-miterlimit="10"/>
<path d="M16.4669 58H12.3176C10.9643 58 9.86719 59.1135 9.86719 60.4871V64.6986C9.86719 66.0722 10.9643 67.1857 12.3176 67.1857H16.4669C17.8202 67.1857 18.9173 66.0722 18.9173 64.6986V60.4871C18.9173 59.1135 17.8202 58 16.4669 58Z" fill="#61687F" stroke="#61687F" stroke-width="3" stroke-miterlimit="10"/>
<path d="M16.4669 76H12.3176C10.9643 76 9.86719 77.1135 9.86719 78.4871V82.6986C9.86719 84.0722 10.9643 85.1857 12.3176 85.1857H16.4669C17.8202 85.1857 18.9173 84.0722 18.9173 82.6986V78.4871C18.9173 77.1135 17.8202 76 16.4669 76Z" fill="#61687F" stroke="#61687F" stroke-width="3" stroke-miterlimit="10"/>
<path d="M37.157 76H33.0077C31.6544 76 30.5573 77.1135 30.5573 78.4871V82.6986C30.5573 84.0722 31.6544 85.1857 33.0077 85.1857H37.157C38.5103 85.1857 39.6074 84.0722 39.6074 82.6986V78.4871C39.6074 77.1135 38.5103 76 37.157 76Z" fill="#61687F" stroke="#61687F" stroke-width="3" stroke-miterlimit="10"/>
<path d="M54.8914 76H50.742C49.3887 76 48.2916 77.1135 48.2916 78.4871V82.6986C48.2916 84.0722 49.3887 85.1857 50.742 85.1857H54.8914C56.2447 85.1857 57.3418 84.0722 57.3418 82.6986V78.4871C57.3418 77.1135 56.2447 76 54.8914 76Z" fill="#61687F" stroke="#61687F" stroke-width="3" stroke-miterlimit="10"/>
<path d="M53.9062 58H49.7568C48.4035 58 47.3065 59.1135 47.3065 60.4871V64.6986C47.3065 66.0722 48.4035 67.1857 49.7568 67.1857H53.9062C55.2595 67.1857 56.3566 66.0722 56.3566 64.6986V60.4871C56.3566 59.1135 55.2595 58 53.9062 58Z" fill="#61687F" stroke="#61687F" stroke-width="3" stroke-miterlimit="10"/>
<path d="M38.1423 20H33.9929C32.6396 20 31.5425 21.1135 31.5425 22.4871V26.6986C31.5425 28.0722 32.6396 29.1857 33.9929 29.1857H38.1423C39.4956 29.1857 40.5927 28.0722 40.5927 26.6986V22.4871C40.5927 21.1135 39.4956 20 38.1423 20Z" fill="#61687F" stroke="#61687F" stroke-width="3" stroke-miterlimit="10"/>
<path d="M103.031 98.264L95.9273 101.314C95.3697 101.548 94.7438 101.549 94.1852 101.318C93.6266 101.086 93.1801 100.641 92.9424 100.077L78.2367 64.8147L74.0445 54.7345C63.9256 54.5592 55.7768 46.8111 55.7768 37.2768C55.7895 34.981 56.2672 32.7124 57.1801 30.6123C58.0931 28.5122 59.4217 26.6256 61.0833 25.0699L66.297 38.635L75.8454 40.5762L80.8203 33.7853L75.8222 19.8663C85.4403 20.5404 93.0386 28.0728 93.0386 37.2768C93.0386 42.8646 90.2427 47.839 85.888 51.0374L89.5927 59.9381L104.269 95.2106C104.503 95.7822 104.504 96.425 104.272 96.9976C104.04 97.5701 103.594 98.0257 103.031 98.264Z" fill="#61687F"/>
<path d="M104.126 45.5708L101.804 51.7248C101.587 52.3026 101.154 52.7692 100.598 53.022C100.043 53.2748 99.4113 53.2931 98.8426 53.0729L96.6337 52.2067C94.7953 55.2269 92.4013 57.8587 89.5827 59.9582L85.8648 51.0373C90.2195 47.839 93.0154 42.8645 93.0154 37.2767C93.0154 28.0727 85.427 20.5336 75.799 19.8663L80.7971 33.7852L75.8222 40.5762L66.297 38.6349L61.1065 25.0699C59.4449 26.6256 58.1163 28.5122 57.2034 30.6123C56.2904 32.7123 55.8127 34.9809 55.8 37.2767C55.8 46.811 63.9489 54.5591 74.0677 54.7344L78.2367 64.8146C76.7151 65.0806 75.1739 65.2136 73.6299 65.2123C72.7444 65.2123 71.8721 65.1719 71.0065 65.0843L70.9336 65.5224C70.8283 66.131 70.4899 66.6724 69.9926 67.028C69.4953 67.3837 68.8796 67.5246 68.2803 67.4198L61.8859 66.2908C61.3688 66.1983 60.8996 65.9254 60.5593 65.519C60.3363 65.2589 60.1732 64.9514 60.082 64.6191C59.9908 64.2867 59.9737 63.9379 60.032 63.598L60.3636 61.6736C58.4241 60.5549 56.6283 59.1965 55.0173 57.6294C54.1479 56.7875 53.3357 55.8867 52.5862 54.9332L52.0224 55.2702C51.4959 55.5763 50.8716 55.6583 50.2858 55.4986C49.6999 55.3389 49.2 54.9503 48.8949 54.4176L45.6479 48.7051C45.3459 48.1702 45.2647 47.5356 45.4219 46.94C45.5792 46.3444 45.9621 45.8364 46.487 45.527L47.5516 44.9001C46.5667 41.165 46.3633 37.2614 46.9547 33.4415L45.0344 32.5484C44.4823 32.2915 44.0531 31.8224 43.8411 31.2443C43.629 30.6661 43.6514 30.026 43.9034 29.4646L46.5965 23.4657C46.8507 22.9051 47.3127 22.4693 47.8818 22.2534C48.4509 22.0375 49.0809 22.0589 49.6345 22.3131L50.908 22.9062C52.7956 19.9316 55.2275 17.3528 58.0718 15.3098L57.057 12.9304C56.8175 12.3639 56.8079 11.7241 57.0303 11.1504C57.2527 10.5767 57.689 10.1154 58.2443 9.86691L64.2142 7.24153C64.772 6.99751 65.4023 6.98779 65.9672 7.2145C66.5321 7.4412 66.9857 7.88591 67.229 8.45143L68.2505 10.8476C71.4728 10.1867 74.786 10.1216 78.031 10.6555L78.5517 8.63342C78.7069 8.03693 79.088 7.52703 79.6118 7.21509C80.1357 6.90316 80.7597 6.81452 81.3476 6.96855L87.6259 8.65365C88.2131 8.81197 88.7146 9.20005 89.021 9.73305C89.3274 10.2661 89.4137 10.9006 89.261 11.4981L88.4186 14.7638C91.0182 16.4899 93.3077 18.6557 95.1877 21.1672L97.2672 19.7517C97.7721 19.4094 98.3898 19.2842 98.9853 19.4036C99.5807 19.523 100.105 19.8772 100.444 20.3887L104.06 25.8653C104.397 26.3779 104.52 27.0053 104.404 27.6104C104.287 28.2154 103.939 28.7488 103.436 29.0939L99.957 31.453C100.43 33.5102 100.668 35.6158 100.667 37.7284C100.667 39.017 100.579 40.3041 100.405 41.5805L102.819 42.5275C103.103 42.6388 103.362 42.8061 103.581 43.0197C103.8 43.2334 103.976 43.4891 104.097 43.7721C104.219 44.0551 104.284 44.3598 104.289 44.6686C104.294 44.9773 104.238 45.284 104.126 45.5708Z" stroke="#61687F" stroke-width="3" stroke-miterlimit="10"/>
<path d="M1 8.86932H60.5427" stroke="#61687F" stroke-miterlimit="10"/>
<path d="M1 102.783H66.2936" stroke="#61687F" stroke-miterlimit="10"/>
</svg>
