<svg width="131" height="108" viewBox="0 0 131 108" fill="none" xmlns="http://www.w3.org/2000/svg">
<path d="M101.114 1H9.71984C4.90684 1 1.00513 4.96479 1.00513 9.85559V98.0369C1.00513 102.928 4.90684 106.892 9.71984 106.892H101.114C105.927 106.892 109.829 102.928 109.829 98.0369V9.85559C109.829 4.96479 105.927 1 101.114 1Z" fill="#FFD3B2" stroke="#61687F" stroke-width="2" stroke-miterlimit="10"/>
<path d="M109.824 9.85104V28.1605H1V9.85104C1.0083 7.5054 1.92926 5.2583 3.56191 3.6001C5.19457 1.9419 7.40639 1.00722 9.7147 1H101.109C103.417 1.00722 105.629 1.9419 107.262 3.6001C108.894 5.2583 109.815 7.5054 109.824 9.85104Z" fill="#FFD3B2" stroke="#61687F" stroke-width="2" stroke-miterlimit="10"/>
<path d="M43.0837 36.1576H16.4495C13.6881 36.1576 11.4495 38.3962 11.4495 41.1576V68.3838C11.4495 71.1452 13.6881 73.3838 16.4495 73.3838H43.0837C45.8452 73.3838 48.0837 71.1452 48.0837 68.3838V41.1576C48.0837 38.3962 45.8452 36.1576 43.0837 36.1576Z" stroke="#61687F" stroke-miterlimit="10"/>
<path d="M92.4572 38.3634H56.9062C56.0821 38.3634 55.4141 39.0423 55.4141 39.8797C55.4141 40.7171 56.0821 41.396 56.9062 41.396H92.4572C93.2813 41.396 93.9493 40.7171 93.9493 39.8797C93.9493 39.0423 93.2813 38.3634 92.4572 38.3634Z" fill="#61687F" stroke="#61687F" stroke-miterlimit="10"/>
<path d="M79.8369 49.3975H56.5018C56.2014 49.3975 55.9579 49.6449 55.9579 49.9501C55.9579 50.2553 56.2014 50.5027 56.5018 50.5027H79.8369C80.1372 50.5027 80.3807 50.2553 80.3807 49.9501C80.3807 49.6449 80.1372 49.3975 79.8369 49.3975Z" stroke="#61687F" stroke-miterlimit="10"/>
<path d="M47.1354 83.5913H12.3978C11.8741 83.5913 11.4495 84.0227 11.4495 84.555V84.5595C11.4495 85.0918 11.8741 85.5232 12.3978 85.5232H47.1354C47.6592 85.5232 48.0837 85.0918 48.0837 84.5595V84.555C48.0837 84.0227 47.6592 83.5913 47.1354 83.5913Z" stroke="#61687F" stroke-miterlimit="10"/>
<path d="M47.1354 95.726H12.3978C11.8741 95.726 11.4495 96.1574 11.4495 96.6896V96.6942C11.4495 97.2264 11.8741 97.6578 12.3978 97.6578H47.1354C47.6592 97.6578 48.0837 97.2264 48.0837 96.6942V96.6896C48.0837 96.1574 47.6592 95.726 47.1354 95.726Z" stroke="#61687F" stroke-miterlimit="10"/>
<path d="M128.417 44.9079L82.0202 92L69.967 79.7663L116.364 32.6742C116.887 32.1434 117.508 31.7224 118.191 31.4351C118.874 31.1478 119.606 31 120.346 31C121.085 31 121.818 31.1478 122.501 31.4351C123.184 31.7224 123.805 32.1434 124.328 32.6742L128.417 36.8251C128.94 37.3558 129.355 37.9858 129.638 38.6793C129.921 39.3727 130.067 40.1159 130.067 40.8665C130.067 41.6171 129.921 42.3603 129.638 43.0537C129.355 43.7472 128.94 44.3772 128.417 44.9079Z" fill="#61687F"/>
<path d="M65.0408 96L70.5581 80L81.79 91.7356L65.0408 96Z" fill="#F9C9A5" stroke="#61687F" stroke-miterlimit="10"/>
<path d="M128.453 44.6615L125.184 48L113.318 36.0925L116.694 32.6446C117.204 32.1232 117.81 31.7096 118.477 31.4274C119.144 31.1452 119.859 31 120.581 31C121.303 31 122.018 31.1452 122.685 31.4274C123.352 31.7096 123.958 32.1232 124.468 32.6446L128.46 36.7219C128.97 37.2437 129.375 37.863 129.65 38.5444C129.926 39.2258 130.068 39.956 130.067 40.6933C130.066 41.4306 129.923 42.1605 129.646 42.8414C129.369 43.5223 128.964 44.1408 128.453 44.6615Z" fill="#F9C9A5" stroke="#61687F" stroke-miterlimit="10"/>
<path d="M24.2048 19.1999C26.677 19.1999 28.6812 17.1633 28.6812 14.6511C28.6812 12.1388 26.677 10.1022 24.2048 10.1022C21.7325 10.1022 19.7283 12.1388 19.7283 14.6511C19.7283 17.1633 21.7325 19.1999 24.2048 19.1999Z" fill="#F9C9A5" stroke="#61687F" stroke-miterlimit="10"/>
<path d="M11.4496 19.1999C13.9219 19.1999 15.926 17.1633 15.926 14.6511C15.926 12.1388 13.9219 10.1022 11.4496 10.1022C8.97732 10.1022 6.97314 12.1388 6.97314 14.6511C6.97314 17.1633 8.97732 19.1999 11.4496 19.1999Z" fill="#F9C9A5" stroke="#61687F" stroke-miterlimit="10"/>
<path d="M37.2296 19.1999C39.7019 19.1999 41.7061 17.1633 41.7061 14.6511C41.7061 12.1388 39.7019 10.1022 37.2296 10.1022C34.7573 10.1022 32.7531 12.1388 32.7531 14.6511C32.7531 17.1633 34.7573 19.1999 37.2296 19.1999Z" fill="#F9C9A5" stroke="#61687F" stroke-miterlimit="10"/>
</svg>
