<svg width="102" height="105" viewBox="0 0 102 105" fill="none" xmlns="http://www.w3.org/2000/svg">
<path d="M58.8068 1H5.05756C2.81663 1 1 2.846 1 5.12316V99.8768C1 102.154 2.81663 104 5.05756 104H58.8068C61.0477 104 62.8643 102.154 62.8643 99.8768V5.12316C62.8643 2.846 61.0477 1 58.8068 1Z" fill="#FFD3B2" stroke="#61687F" stroke-width="2" stroke-miterlimit="10"/>
<path d="M23.7697 8.37354H39.9864" stroke="#61687F" stroke-width="2" stroke-miterlimit="10" stroke-linecap="round"/>
<path d="M56.4162 31.7141L77.3736 68.1663" stroke="#61687F" stroke-width="4" stroke-miterlimit="10" stroke-linecap="round"/>
<path d="M42.4785 76.0105L49.6705 87.2942L56.5109 83.3463L49.6705 72.365L38.9788 54.443" stroke="#61687F" stroke-width="4" stroke-miterlimit="10"/>
<path d="M1 87.2943H62.8643" stroke="#61687F" stroke-width="2" stroke-miterlimit="10"/>
<path d="M88.0516 66.73L50.3704 71.884L38.2789 78.1855C37.8934 78.292 32.2568 79.7248 28.2026 75.935C24.6725 72.633 23.8745 66.8056 26.5931 62.009L38.2789 54.9034L62.8643 23.7048L71.703 38.799L78.7362 50.8249L88.0516 66.73Z" stroke="#61687F" stroke-width="4" stroke-miterlimit="10"/>
<path d="M83.6256 44.0011C83.6253 45.5164 83.1526 46.9926 82.2754 48.2179C81.3982 49.4432 80.1616 50.3547 78.743 50.8215L71.7099 38.7956C72.7105 37.8281 73.9687 37.1803 75.3283 36.9328C76.6879 36.6852 78.0891 36.8488 79.358 37.4032C80.627 37.9575 81.7078 38.8783 82.4665 40.0512C83.2251 41.2241 83.6282 42.5976 83.6256 44.0011V44.0011Z" stroke="#61687F" stroke-width="4" stroke-miterlimit="10"/>
<path d="M81.4041 28.8485L83.6188 23.7151" stroke="#61687F" stroke-width="4" stroke-miterlimit="10"/>
<path d="M88.3493 37.483L100.194 31.13" stroke="#61687F" stroke-width="4" stroke-miterlimit="10"/>
<path d="M91.8828 47.894L98.9362 49.9866" stroke="#61687F" stroke-width="4" stroke-miterlimit="10"/>
<path d="M9.7948 26.2819H37.8766" stroke="#61687F" stroke-width="4" stroke-miterlimit="10" stroke-linecap="round"/>
<path d="M9.53363 33.9136H24.5162" stroke="#61687F" stroke-width="4" stroke-miterlimit="10" stroke-linecap="round"/>
<path d="M31.9322 96.8325C32.5447 96.8325 33.0413 96.328 33.0413 95.7056C33.0413 95.0832 32.5447 94.5786 31.9322 94.5786C31.3196 94.5786 30.8231 95.0832 30.8231 95.7056C30.8231 96.328 31.3196 96.8325 31.9322 96.8325Z" fill="#61687F" stroke="#61687F" stroke-width="3" stroke-miterlimit="10" stroke-linecap="round"/>
<path d="M2.70673 14.8583L61.6776 15.3039" stroke="#61687F" stroke-width="4" stroke-miterlimit="10" stroke-linecap="round"/>
<path d="M97.7899 75.2959V75.0897" stroke="black" stroke-miterlimit="10"/>
</svg>
