<svg width="108" height="104" viewBox="0 0 108 104" fill="none" xmlns="http://www.w3.org/2000/svg">
<path d="M22.2412 2C20.5254 2.01945 18.8381 2.4481 17.3152 3.25142C15.1453 4.42959 13.415 6.29772 12.3891 8.56997C12.543 18.2153 12.8109 25.5268 13.0048 30.157C13.3127 37.7219 13.6637 42.9247 10.2339 47.0512C8.81437 48.7151 7.0182 50.0034 5 50.8055C7.21057 52.2697 10.1816 54.7318 12.0812 58.6269C14.1563 62.8724 13.793 66.4326 13.6206 75.5211C13.5498 79.338 13.4944 84.9068 13.6206 91.7896C13.1095 94.7492 14.3718 97.64 16.6994 98.9853C19.2148 100.437 21.8564 99.4483 22.2412 99.2982" stroke="#61687F" stroke-width="4" stroke-miterlimit="10" stroke-linecap="round"/>
<path d="M86.283 99.7706C87.9986 99.7493 89.6855 99.3208 91.2091 98.5192C93.379 97.341 95.1093 95.4729 96.1352 93.2007C95.9812 83.5553 95.7134 76.2407 95.5194 71.6136C95.2115 64.0456 94.8606 58.8428 98.2903 54.7194C99.709 53.0545 101.505 51.766 103.524 50.9651C101.314 49.4978 98.3427 47.0356 96.4431 43.1437C94.3679 38.8983 94.7282 35.3223 94.9037 26.2495C94.9745 22.4327 95.0299 16.8638 94.9037 9.98101C95.4117 7.01826 94.1524 4.13061 91.8249 2.78533C89.3095 1.33055 86.6648 2.3223 86.283 2.47247" stroke="#61687F" stroke-width="4" stroke-miterlimit="10" stroke-linecap="round"/>
<path d="M39.7903 63.6326V54.8726C38.8667 54.0936 32.7584 48.797 32.7091 40.1684C32.6691 33.151 36.6592 28.4832 37.943 27.0285C42.6844 21.6536 48.7188 20.4585 51.1818 20.1456C52.8505 19.936 61.0093 18.8942 67.4994 24.8385C75.6428 32.2782 73.4723 43.6505 73.3491 44.2355C71.7789 51.7785 66.5019 55.9739 65.0364 57.0626" stroke="#FFD3B2" stroke-width="5" stroke-miterlimit="10" stroke-linecap="round"/>
<path d="M37.0195 72.0797L71.0399 63.6326" stroke="#FFD3B2" stroke-width="5" stroke-miterlimit="10" stroke-linecap="round"/>
<path d="M43.1769 78.34L63.343 73.3312" stroke="#FFD3B2" stroke-width="5" stroke-miterlimit="10" stroke-linecap="round"/>
<path d="M50.5661 83.3456L57.8013 81.4498" stroke="#FFD3B2" stroke-width="5" stroke-miterlimit="10" stroke-linecap="round"/>
<path d="M40.0982 102.114C41.7985 102.114 43.1769 100.713 43.1769 98.9853C43.1769 97.2574 41.7985 95.8568 40.0982 95.8568C38.3979 95.8568 37.0195 97.2574 37.0195 98.9853C37.0195 100.713 38.3979 102.114 40.0982 102.114Z" stroke="#61687F" stroke-width="3" stroke-miterlimit="10" stroke-linecap="round"/>
<path d="M53.4 102.257C55.1003 102.257 56.4788 100.856 56.4788 99.1286C56.4788 97.4007 55.1003 96 53.4 96C51.6996 96 50.3212 97.4007 50.3212 99.1286C50.3212 100.856 51.6996 102.257 53.4 102.257Z" stroke="#61687F" stroke-width="3" stroke-miterlimit="10" stroke-linecap="round"/>
<path d="M66.5757 102.114C68.2761 102.114 69.6545 100.713 69.6545 98.9853C69.6545 97.2574 68.2761 95.8568 66.5757 95.8568C64.8754 95.8568 63.4969 97.2574 63.4969 98.9853C63.4969 100.713 64.8754 102.114 66.5757 102.114Z" stroke="#61687F" stroke-width="3" stroke-miterlimit="10" stroke-linecap="round"/>
<path d="M13.5776 27.3194V27.0066" stroke="black" stroke-miterlimit="10"/>
</svg>
