<svg width="156" height="104" viewBox="0 0 156 104" fill="none" xmlns="http://www.w3.org/2000/svg">
<path d="M33.2158 32.8882C32.5719 30.2803 31.2123 27.9119 29.2953 26.0587C27.5456 24.4283 25.4309 23.2561 23.1346 22.644C21.3871 22.1773 14.4311 20.6748 9.69288 25.4896C9.48565 25.7059 5.41954 29.9743 6.33246 35.7338C6.47807 36.6217 7.02134 40.0876 9.69288 41.9942C11.3731 43.1837 12.4092 42.7454 16.4137 43.7016C18.7143 44.2625 20.9629 45.0242 23.1346 45.9781C27.6151 47.8676 29.8554 48.8237 31.5356 51.1002C33.1606 53.4159 33.9517 56.2294 33.7759 59.0679C33.7199 60.2062 33.5463 63.7063 30.9756 66.4666C28.8921 68.7089 26.383 69.2211 23.1346 69.8813C20.8943 70.348 17.8643 70.9569 14.1734 69.8813C11.6401 69.1466 9.32899 67.7767 7.4526 65.8974C5.49152 63.8516 4.13342 61.2886 3.5321 58.4988" stroke="#61687F" stroke-width="6" stroke-miterlimit="10"/>
<path d="M76.4252 22.0349H48.7018V70.4674H76.4252" stroke="#61687F" stroke-width="6" stroke-miterlimit="10"/>
<path d="M76.4252 46.2512H48.7018" stroke="#61687F" stroke-width="6" stroke-miterlimit="10"/>
<path d="M109.391 70.439C123.31 70.439 134.594 59.6097 134.594 46.2512C134.594 32.8927 123.31 22.0635 109.391 22.0635C95.4716 22.0635 84.1878 32.8927 84.1878 46.2512C84.1878 59.6097 95.4716 70.439 109.391 70.439Z" stroke="#61687F" stroke-width="6" stroke-miterlimit="10"/>
<path d="M132.326 75.8684L150.836 98.8953L124.227 65.7949" stroke="#61687F" stroke-width="6" stroke-miterlimit="10"/>
<path d="M131.307 74.605L152.276 100.682" stroke="#F9C9A5" stroke-width="6" stroke-miterlimit="10" stroke-linecap="round"/>
<path d="M106.535 36.5363C105.502 37.325 104.393 38.0039 103.225 38.5624C102.239 39.0746 97.1254 41.7211 95.9436 40.2698C94.8907 38.9836 97.7079 35.085 99.3041 32.8711C100.639 30.9087 102.138 29.0674 103.785 27.3677C104.406 31.0499 105.37 34.4704 106.535 36.5363Z" fill="#61687F"/>
<path d="M114.986 20.3675C114.942 21.9749 114.809 23.5785 114.588 25.1709C114 29.4735 112.835 33.611 111.474 36.1209C110.64 37.6632 109.727 38.5909 108.825 38.5795C108.03 38.5795 107.252 37.8112 106.535 36.5534C105.37 34.4875 104.384 31.067 103.802 27.3848C103.461 25.252 103.274 23.097 103.241 20.9366C103.201 16.3505 103.848 11.7848 105.162 7.39714C106.339 3.61246 107.901 0.994472 109.402 1.01724C110.903 1.04 112.348 3.66937 113.407 7.39714C114.547 11.6203 115.079 15.9892 114.986 20.3675Z" fill="#FFD3B2" stroke="#F9C9A5" stroke-width="0.75" stroke-miterlimit="10" stroke-linecap="round"/>
<path d="M121.427 41.1234C120.335 41.96 117.91 40.3722 114.706 38.2778C113.474 37.4696 112.399 36.764 111.474 36.1038C112.835 33.5939 114 29.4564 114.588 25.1538C116.627 26.827 118.33 29.9003 119.187 31.4483C120.9 34.5443 122.978 39.9283 121.427 41.1234Z" fill="#61687F"/>
<path d="M108.181 32.3816L110.601 32.097L109.929 46.9569L108.181 32.3816Z" fill="#61687F"/>
<path d="M109.111 18.9333C111.276 18.9333 113.031 17.1497 113.031 14.9495C113.031 12.7492 111.276 10.9656 109.111 10.9656C106.946 10.9656 105.19 12.7492 105.19 14.9495C105.19 17.1497 106.946 18.9333 109.111 18.9333Z" stroke="#61687F" stroke-width="0.75" stroke-miterlimit="10"/>
<path d="M113.367 7.38H105.146C106.322 3.59535 107.884 0.977382 109.385 1.00015C110.886 1.02291 112.331 3.65226 113.367 7.38Z" fill="#61687F"/>
</svg>
