<svg width="151" height="119" viewBox="0 0 151 119" fill="none" xmlns="http://www.w3.org/2000/svg">
<path d="M150.304 98.451V102.571C150.304 103.782 149.831 104.943 148.988 105.799C148.145 106.656 147.003 107.137 145.811 107.137H16.6458C15.4542 107.137 14.3115 106.656 13.469 105.799C12.6264 104.943 12.1531 103.782 12.1531 102.571V98.7326H19.2665L144.314 98.4815L150.304 98.451Z" fill="#61687F"/>
<path d="M144.314 27.2431V98.4662L19.2665 98.7173V27.2431C19.2665 26.0323 19.7398 24.8711 20.5824 24.015C21.4249 23.1588 22.5676 22.6778 23.7592 22.6778H139.821C141.012 22.6778 142.155 23.1588 142.998 24.015C143.84 24.8711 144.314 26.0323 144.314 27.2431Z" fill="#FFD3B2" stroke="#61687F" stroke-width="3" stroke-miterlimit="10"/>
<path d="M0.546875 98.3863V98.0058" stroke="black" stroke-miterlimit="10"/>
<path d="M125.497 29.5259H130.914C132.528 29.7209 134.029 30.467 135.171 31.642C136.313 32.817 137.028 34.3512 137.2 35.9934V93.4405" stroke="#61687F" stroke-miterlimit="10"/>
<path d="M72.397 29.5259H72.2692" stroke="#61687F" stroke-miterlimit="10"/>
<path d="M116.396 29.5259H115.893" stroke="#61687F" stroke-miterlimit="10"/>
<path d="M24.508 93.4405V34.3917C25.1025 32.8099 26.1974 31.4736 27.6205 30.5929C29.0436 29.7121 30.7144 29.3368 32.3702 29.5258H63.1678" stroke="#61687F" stroke-miterlimit="10"/>
<path d="M116.609 32.6644C116.619 38.3846 114.504 43.8979 110.686 48.1014C106.868 52.3048 101.629 54.8883 96.0169 55.3351C95.4628 55.3732 94.8938 55.396 94.3397 55.396C93.7856 55.396 93.2165 55.3732 92.6624 55.3351C87.1964 54.9055 82.0771 52.4475 78.2797 48.4294C74.4823 44.4114 72.2723 39.1142 72.0708 33.5471C73.0704 37.3287 77.6867 40.5206 84.0701 42.1832C87.3655 43.0144 90.7496 43.4272 94.145 43.412C97.6816 43.4321 101.206 42.9832 104.628 42.0766C111.655 40.1554 116.436 36.37 116.436 31.9987C116.434 31.1457 116.254 30.303 115.908 29.5258C114.445 26.1284 110.034 23.3055 104.119 21.7875C97.7097 20.22 91.0302 20.1849 84.6055 21.6848V21.6848C78.4879 23.1723 73.9053 26.0485 72.4115 29.522C72.3404 29.6779 72.2805 29.8377 72.2243 29.9975C72.2243 29.8377 72.2617 29.6779 72.2842 29.522C73.0633 23.8434 75.934 18.6768 80.3164 15.0656C84.6989 11.4544 90.2666 9.66756 95.8952 10.066C101.524 10.4644 106.794 13.0184 110.641 17.2122C114.489 21.406 116.627 26.9271 116.623 32.6606L116.609 32.6644Z" stroke="#61687F" stroke-width="2" stroke-miterlimit="10"/>
<path d="M72.2099 30.0013C72.1075 30.8853 72.0562 31.7745 72.0561 32.6645C72.0561 32.9612 72.0561 33.2542 72.0561 33.5471C71.9247 33.042 71.8616 32.5211 71.8686 31.9987C71.8698 31.3181 71.9852 30.6427 72.2099 30.0013V30.0013Z" stroke="#61687F" stroke-width="2" stroke-miterlimit="10"/>
<path d="M94.145 20.5853C90.9314 20.5733 87.7274 20.9423 84.598 21.6848C86.5261 14.8787 90.1652 10.3134 94.3322 10.3134C98.4992 10.3134 102.194 14.9357 104.104 21.7875C100.845 20.9741 97.5005 20.5703 94.145 20.5853V20.5853Z" stroke="#61687F" stroke-width="2" stroke-miterlimit="10"/>
<path d="M104.613 42.0767C103.089 49.0465 99.8694 54.1711 96.002 55.3352C94.9034 55.6732 93.731 55.6732 92.6324 55.3352C88.7912 54.1939 85.5863 49.0997 84.0513 42.1832C87.3528 43.0161 90.7433 43.4288 94.145 43.4121C97.6766 43.4309 101.196 42.982 104.613 42.0767V42.0767Z" stroke="#61687F" stroke-width="2" stroke-miterlimit="10"/>
<path d="M125.497 29.5258C125.107 24.8812 123.687 20.3865 121.343 16.3796C118.999 12.3726 115.792 8.95758 111.962 6.391C111.721 6.72392 111.405 6.99424 111.042 7.18C110.678 7.36576 110.276 7.46171 109.869 7.46005C109.174 7.46005 108.508 7.17947 108.016 6.68004C107.525 6.18061 107.249 5.50323 107.249 4.79693C107.252 4.47074 107.315 4.14803 107.436 3.84582C103.317 1.95927 98.8497 0.989025 94.3321 1.00009C77.9038 1.00009 64.4407 13.5548 63.1677 29.5335C63.1053 30.3476 63.0729 31.1719 63.0704 32.0063C63.0704 45.3219 71.5279 56.6706 83.4074 61.0685C83.5948 60.4605 83.9905 59.941 84.5226 59.6041C85.0548 59.2672 85.6882 59.1354 86.3078 59.2325C86.9275 59.3296 87.4923 59.6493 87.8999 60.1334C88.3074 60.6176 88.5307 61.2341 88.5291 61.8713C88.5297 62.0711 88.5071 62.2703 88.4617 62.4648C90.3979 62.8285 92.3631 63.0094 94.3321 63.005C111.599 63.005 125.594 49.1226 125.594 31.9987C125.594 31.1668 125.561 30.3425 125.497 29.5258ZM96.0094 55.3352C94.9109 55.6732 93.7384 55.6732 92.6399 55.3352C87.1739 54.9056 82.0546 52.4476 78.2572 48.4295C74.4598 44.4115 72.2498 39.1143 72.0483 33.5471C71.9196 33.0417 71.8591 32.5208 71.8686 31.9987C71.8698 31.3181 71.985 30.6427 72.2093 30.0014C72.2093 29.8416 72.2467 29.6818 72.2692 29.5258C72.8683 25.3017 74.63 21.3355 77.3511 18.0847C80.0723 14.8338 83.6421 12.4305 87.6492 11.1519C91.6562 9.87333 95.9372 9.77146 99.9987 10.8581C104.06 11.9447 107.737 14.1755 110.605 17.2934C113.473 20.4113 115.415 24.2893 116.208 28.4803C117.001 32.6714 116.612 37.0048 115.087 40.9811C113.561 44.9574 110.961 48.4147 107.586 50.9543C104.21 53.494 100.197 55.0126 96.0094 55.3352V55.3352Z" stroke="#61687F" stroke-width="2" stroke-miterlimit="10"/>
<path d="M83.1004 32.9498C83.0898 36.0546 83.4163 39.1511 84.0738 42.1832C77.6867 40.5207 73.0742 37.3288 72.0745 33.5471C72.0745 33.2542 72.0745 32.9612 72.0745 32.6645C72.0746 31.7745 72.1258 30.8853 72.228 30.0014C72.2842 29.8416 72.3441 29.6818 72.4152 29.5258C73.9128 26.0524 78.4916 23.1762 84.6092 21.6887C83.8912 24.2464 83.4358 26.8728 83.2501 29.5258C83.1453 30.6405 83.1004 31.7857 83.1004 32.9498Z" stroke="#61687F" stroke-width="2" stroke-miterlimit="10"/>
<path d="M72.0561 32.6645C72.0561 32.9612 72.0561 33.2542 72.0561 33.5471C71.9247 33.042 71.8616 32.5211 71.8686 31.9987C71.8698 31.3181 71.9852 30.6427 72.2099 30.0013C72.1075 30.8853 72.0562 31.7745 72.0561 32.6645Z" stroke="#61687F" stroke-width="2" stroke-miterlimit="10"/>
<path d="M105.564 32.9499C105.574 36.0195 105.255 39.081 104.613 42.0806C101.191 42.9872 97.6666 43.4361 94.13 43.4159C90.7359 43.4308 87.353 43.018 84.0588 42.1871C83.4061 39.1532 83.0847 36.0554 83.1004 32.9499C83.1004 31.7857 83.1453 30.6406 83.2314 29.5259C83.4195 26.8725 83.8775 24.2461 84.598 21.6887V21.6887C91.0227 20.1887 97.7022 20.2239 104.111 21.7914C104.811 24.3185 105.256 26.9112 105.44 29.5297C105.519 30.6406 105.564 31.7857 105.564 32.9499Z" stroke="#61687F" stroke-width="2" stroke-miterlimit="10"/>
<path d="M116.421 31.9987C116.421 36.3624 111.64 40.1554 104.613 42.0767C105.255 39.0771 105.574 36.0156 105.564 32.946C105.564 31.7818 105.519 30.6367 105.433 29.522C105.249 26.9035 104.803 24.3108 104.104 21.7837C110.019 23.3055 114.429 26.1246 115.893 29.522C116.24 30.3004 116.419 31.1445 116.421 31.9987V31.9987Z" stroke="#61687F" stroke-width="2" stroke-miterlimit="10"/>
<path d="M116.608 32.6644C116.619 38.3846 114.504 43.8979 110.686 48.1014C106.868 52.3048 101.629 54.8884 96.0169 55.3352C94.9183 55.6731 93.7459 55.6731 92.6473 55.3352C87.1814 54.9055 82.0621 52.4475 78.2647 48.4295C74.4673 44.4114 72.2573 39.1142 72.0558 33.5471C73.0554 37.3287 77.6717 40.5206 84.055 42.1832C87.3553 43.0157 90.7445 43.4285 94.1449 43.412C97.6815 43.4322 101.206 42.9833 104.628 42.0766C111.655 40.1554 116.436 36.37 116.436 31.9987C116.434 31.1458 116.254 30.303 115.908 29.5258C114.444 26.1284 110.034 23.3055 104.119 21.7875C97.7097 20.22 91.0301 20.1849 84.6054 21.6848V21.6848C78.4878 23.1723 73.9053 26.0485 72.4115 29.522C72.3403 29.678 72.2804 29.8377 72.2243 29.9975C72.2243 29.8377 72.2617 29.678 72.2842 29.522C73.0633 23.8434 75.9339 18.6768 80.3164 15.0656C84.6988 11.4544 90.2665 9.66756 95.8952 10.066C101.524 10.4644 106.794 13.0184 110.641 17.2122C114.489 21.406 116.627 26.9272 116.623 32.6606L116.608 32.6644Z" stroke="#61687F" stroke-width="2" stroke-miterlimit="10"/>
<path d="M88.5291 61.8636C88.5298 62.0634 88.5072 62.2627 88.4617 62.4571C88.3109 63.12 87.916 63.6991 87.3582 64.0755C86.8004 64.4519 86.122 64.5971 85.4622 64.4813C84.8024 64.3654 84.2112 63.9974 83.8101 63.4526C83.4089 62.9078 83.2281 62.2277 83.3049 61.5518C83.3816 60.8758 83.7101 60.2554 84.2228 59.8178C84.7355 59.3802 85.3936 59.1586 86.0621 59.1985C86.7305 59.2384 87.3585 59.5368 87.8173 60.0324C88.2761 60.528 88.5308 61.1832 88.5291 61.8636V61.8636Z" stroke="#61687F" stroke-width="2" stroke-miterlimit="10"/>
<path d="M112.49 4.79692C112.49 5.50322 112.214 6.18059 111.723 6.68002C111.231 7.17945 110.564 7.46002 109.869 7.46002C109.174 7.46002 108.508 7.17945 108.016 6.68002C107.525 6.18059 107.249 5.50322 107.249 4.79692C107.251 4.47073 107.315 4.14803 107.436 3.84582C107.656 3.26596 108.069 2.7827 108.603 2.47977C109.138 2.17683 109.759 2.0733 110.361 2.18712C110.962 2.30093 111.505 2.62492 111.896 3.10295C112.287 3.58099 112.501 4.18294 112.501 4.80454L112.49 4.79692Z" stroke="#61687F" stroke-width="2" stroke-miterlimit="10"/>
<path d="M58.0947 67.1898H40.7154C37.9674 67.1898 35.7397 69.4535 35.7397 72.2459V112.352C35.7397 115.145 37.9674 117.409 40.7154 117.409H58.0947C60.8427 117.409 63.0704 115.145 63.0704 112.352V72.2459C63.0704 69.4535 60.8427 67.1898 58.0947 67.1898Z" fill="#FFD3B2" stroke="#61687F" stroke-width="3" stroke-miterlimit="10"/>
<path d="M63.0704 77.5455H35.7397" stroke="#61687F" stroke-width="3" stroke-miterlimit="10"/>
<path d="M44.9611 71.8389L54.085 71.7551" stroke="#61687F" stroke-miterlimit="10" stroke-linecap="round"/>
<path d="M35.7397 109.583H63.1678" stroke="#61687F" stroke-miterlimit="10" stroke-linecap="round"/>
<path d="M49.7795 113.984C50.2964 113.984 50.7155 113.559 50.7155 113.033C50.7155 112.508 50.2964 112.082 49.7795 112.082C49.2626 112.082 48.8435 112.508 48.8435 113.033C48.8435 113.559 49.2626 113.984 49.7795 113.984Z" fill="#F9C9A5" stroke="#61687F" stroke-miterlimit="10" stroke-linecap="round"/>
</svg>
